<?xml version="1.0" encoding="UTF-8" standalone="no"?>
<!-- This Source Code Form is subject to the terms of the Mozilla Public
   - License, v. 2.0. If a copy of the MPL was not distributed with this
   - file, You can obtain one at http://mozilla.org/MPL/2.0/. -->

<svg
   xmlns:dc="http://purl.org/dc/elements/1.1/"
   xmlns:cc="http://creativecommons.org/ns#"
   xmlns:rdf="http://www.w3.org/1999/02/22-rdf-syntax-ns#"
   xmlns:svg="http://www.w3.org/2000/svg"
   xmlns="http://www.w3.org/2000/svg"
   xmlns:sodipodi="http://sodipodi.sourceforge.net/DTD/sodipodi-0.dtd"
   xmlns:inkscape="http://www.inkscape.org/namespaces/inkscape"
   width="147.55496"
   height="36.240005"
   viewBox="0 0 147.55496 36.240005"
   version="1.1"
   id="svg4"
   sodipodi:docname="about-wordmark2.svg"
   inkscape:version="0.92.2 (5c3e80d, 2017-08-06)">
  <metadata
     id="metadata10">
    <rdf:RDF>
      <cc:Work
         rdf:about="">
        <dc:format>image/svg+xml</dc:format>
        <dc:type
           rdf:resource="http://purl.org/dc/dcmitype/StillImage" />
        <dc:title></dc:title>
      </cc:Work>
    </rdf:RDF>
  </metadata>
  <defs
     id="defs8" />
  <sodipodi:namedview
     pagecolor="#ffffff"
     bordercolor="#666666"
     borderopacity="1"
     objecttolerance="10"
     gridtolerance="10"
     guidetolerance="10"
     inkscape:pageopacity="0"
     inkscape:pageshadow="2"
     inkscape:window-width="1920"
     inkscape:window-height="1017"
     id="namedview6"
     showgrid="false"
     inkscape:zoom="6.1790254"
     inkscape:cx="46.039013"
     inkscape:cy="-2.2189014"
     inkscape:window-x="-8"
     inkscape:window-y="-8"
     inkscape:window-maximized="1"
     inkscape:current-layer="text841"
     fit-margin-top="0"
     fit-margin-left="0"
     fit-margin-right="0"
     fit-margin-bottom="0" />
  <g
     aria-label="Quokka"
     style="font-style:normal;font-weight:normal;font-size:40px;line-height:1.25;font-family:sans-serif;letter-spacing:0px;word-spacing:0px;fill:#55575c;fill-opacity:1;stroke:none"
     id="text3703"
     transform="translate(-4.2706649,-3.712558)">
    <g
       aria-label="Quokka™"
       style="font-style:normal;font-variant:normal;font-weight:normal;font-stretch:normal;font-size:40px;line-height:1.25;font-family:'Fira Sans';-inkscape-font-specification:'Fira Sans';letter-spacing:0px;word-spacing:0px;fill:#55575c;fill-opacity:1;stroke:none"
       id="text841"
       transform="translate(2.1038917,-84.964855)">
      <path
         d="m 20.646773,117.23742 q 2.6,0 4.52,0.64 1.92,0.6 3.68,1.88 l -3.96,5.16 q -2.28,-2.56 -4.68,-3.96 -2.4,-1.36 -5.96,-1.36 -3.72,0 -6.4399998,-1.68 -2.72,-1.72 -4.2,-4.96 -1.44,-3.24 -1.44,-7.8 0,-4.48 1.48,-7.760007 1.52,-3.28 4.32,-5 2.7999998,-1.76 6.6799998,-1.76 5.92,0 9.2,3.8 3.32,3.8 3.32,10.720007 0,8.48 -6.52,12.08 z m -11.5999998,-12.08 q 0,5.12 1.3999998,7.44 1.4,2.32 4.2,2.32 2.88,0 4.24,-2.28 1.4,-2.32 1.4,-7.48 0,-5.160002 -1.4,-7.440007 -1.4,-2.28 -4.24,-2.28 -2.84,0 -4.24,2.32 -1.3599998,2.280007 -1.3599998,7.400007 z"
         style="fill:#55575c;fill-opacity:1"
         id="path845"
         inkscape:connector-curvature="0" />
      <path
         d="m 48.824898,119.03742 h -5.48 l -0.28,-2.68 q -2.32,3.36 -6.44,3.36 -2.92,0 -4.44,-1.76 -1.48,-1.76 -1.48,-4.92 V 97.797413 h 6.32 v 14.440007 q 0,1.56 0.48,2.2 0.52,0.6 1.56,0.6 2,0 3.44,-2.48 V 97.797413 h 6.32 z"
         style="fill:#55575c;fill-opacity:1"
         id="path847"
         inkscape:connector-curvature="0" />
      <path
         d="m 62.995523,97.117413 q 4.88,0 7.64,3.000007 2.76,2.96 2.76,8.32 0,3.4 -1.28,5.96 -1.24,2.52 -3.6,3.92 -2.32,1.4 -5.52,1.4 -4.84,0 -7.64,-2.96 -2.76,-3 -2.76,-8.36 0,-3.4 1.24,-5.92 1.28,-2.560002 3.6,-3.960007 2.36,-1.4 5.56,-1.4 z m 0,4.640007 q -1.92,0 -2.88,1.64 -0.96,1.6 -0.96,5 0,3.48 0.92,5.08 0.96,1.6 2.92,1.6 1.92,0 2.88,-1.6 0.96,-1.64 0.96,-5.04 0,-3.48 -0.96,-5.08 -0.92,-1.6 -2.88,-1.6 z"
         style="fill:#55575c;fill-opacity:1"
         id="path849"
         inkscape:connector-curvature="0" />
      <path
         d="m 83.474898,119.03742 h -6.32 V 89.357413 l 6.32,-0.68 z m 6.68,-11.92 6.96,11.92 h -7.12 l -6.32,-11.6 6.48,-9.640007 h 6.44 z"
         style="fill:#55575c;fill-opacity:1"
         id="path851"
         inkscape:connector-curvature="0" />
      <path
         d="M 105.58427,119.03742 H 99.264273 V 89.357413 l 6.319997,-0.68 z m 6.68,-11.92 6.96,11.92 h -7.12 l -6.32,-11.6 6.48,-9.640007 h 6.44 z"
         style="fill:#55575c;fill-opacity:1"
         id="path853"
         inkscape:connector-curvature="0" />
      <path
         d="m 138.01927,112.87742 q 0,1.2 0.32,1.76 0.36,0.56 1.12,0.84 l -1.32,4.12 q -1.96,-0.16 -3.2,-0.84 -1.2,-0.68 -1.92,-2.2 -2.08,3.16 -6.4,3.16 -3.16,0 -5.04,-1.84 -1.88,-1.84 -1.88,-4.8 0,-3.48 2.56,-5.32 2.56,-1.84 7.4,-1.84 h 2.16 v -0.92 q 0,-1.88 -0.8,-2.56 -0.8,-0.72 -2.8,-0.72 -1.04,0 -2.52,0.32 -1.48,0.28 -3.04,0.8 l -1.44,-4.160007 q 2,-0.76 4.08,-1.16 2.12,-0.4 3.92,-0.4 4.56,0 6.68,1.88 2.12,1.880007 2.12,5.640007 z m -9.56,2.32 q 1.04,0 1.88,-0.52 0.88,-0.52 1.48,-1.48 v -3.8 h -1.56 q -2.16,0 -3.24,0.76 -1.04,0.76 -1.04,2.36 0,1.28 0.64,2 0.68,0.68 1.84,0.68 z"
         style="fill:#55575c;fill-opacity:1"
         id="path855"
         inkscape:connector-curvature="0" />
      <path
         d="m 144.5484,112.61608 h -1.17334 v 3.264 h -1.23733 v -3.264 h -1.216 v -0.97066 h 3.78667 z m 5.17333,3.264 h -1.184 l -0.0427,-1.728 -0.0107,-0.416 q 0,-0.42666 0.0853,-1.13066 h -0.032 l -0.74667,2.83733 h -0.96 l -0.832,-2.82667 h -0.0213 q 0.0747,0.8 0.064,1.536 l -0.0427,1.728 h -1.14133 l 0.14933,-4.23466 h 1.58934 l 0.704,2.66666 0.61866,-2.66666 h 1.65334 z"
         style="font-size:10.66666698px;fill:#55575c;fill-opacity:1"
         id="path857"
         inkscape:connector-curvature="0" />
    </g>
  </g>
</svg>
