<?xml version="1.0" encoding="UTF-8" standalone="no"?>
<!-- Generator: Adobe Illustrator 21.1.0, SVG Export Plug-In . SVG Version: 6.00 Build 0)  -->

<svg
   xmlns:dc="http://purl.org/dc/elements/1.1/"
   xmlns:cc="http://creativecommons.org/ns#"
   xmlns:rdf="http://www.w3.org/1999/02/22-rdf-syntax-ns#"
   xmlns:svg="http://www.w3.org/2000/svg"
   xmlns="http://www.w3.org/2000/svg"
   xmlns:sodipodi="http://sodipodi.sourceforge.net/DTD/sodipodi-0.dtd"
   xmlns:inkscape="http://www.inkscape.org/namespaces/inkscape"
   version="1.1"
   id="Layer_1"
   x="0px"
   y="0px"
   viewBox="0 0 864 1728"
   style="enable-background:new 0 0 864 1728;"
   xml:space="preserve"
   inkscape:version="0.92.2 (5c3e80d, 2017-08-06)"
   sodipodi:docname="about.svg"
   inkscape:export-filename="C:\Users\marku\Desktop\git\Quokka\browser\branding\official\content\about2.png"
   inkscape:export-xdpi="96"
   inkscape:export-ydpi="96"><metadata
     id="metadata312"><rdf:RDF><cc:Work
         rdf:about=""><dc:format>image/svg+xml</dc:format><dc:type
           rdf:resource="http://purl.org/dc/dcmitype/StillImage" /><dc:title /></cc:Work></rdf:RDF></metadata><defs
     id="defs310"><linearGradient
       gradientTransform="matrix(5.3329843,0,0,5.3329843,109.38531,513.48948)"
       x1="62.651901"
       y1="34.546398"
       x2="62.651901"
       y2="11.8951"
       id="XMLID_71_"
       gradientUnits="userSpaceOnUse"><stop
         id="stop120"
         style="stop-color:#000000;stop-opacity:0"
         offset="0.0137" /><stop
         id="stop122"
         style="stop-color:#c4e0e3;stop-opacity:0.2"
         offset="0.64999998" /><stop
         id="stop124"
         style="stop-color:#c4e0e3"
         offset="0.82239997" /><stop
         id="stop126"
         style="stop-color:#cde5e8"
         offset="0.84979999" /><stop
         id="stop128"
         style="stop-color:#e8f4f7"
         offset="0.9443" /><stop
         id="stop130"
         style="stop-color:#f2fafc"
         offset="1" /></linearGradient><linearGradient
       x1="38.491699"
       y1="19.146999"
       x2="29.173901"
       y2="32.832401"
       id="XMLID_70_"
       gradientUnits="userSpaceOnUse"><stop
         id="stop111-7"
         style="stop-color:#0f80bc"
         offset="0" /><stop
         id="stop113-7"
         style="stop-color:#0a5f9e"
         offset="0.33759999" /><stop
         id="stop115-2"
         style="stop-color:#00145a"
         offset="1" /></linearGradient><clipPath
       id="XMLID_68_"><circle
         r="58.234501"
         cx="63.755001"
         cy="59.375"
         id="XMLID_8_" /></clipPath><linearGradient
       x1="76.371597"
       y1="16.591801"
       x2="93.231796"
       y2="18.029301"
       id="XMLID_69_"
       gradientUnits="userSpaceOnUse"><stop
         id="stop102-8"
         style="stop-color:#0f80bc"
         offset="0" /><stop
         id="stop104-0"
         style="stop-color:#0a5f9e"
         offset="0.33759999" /><stop
         id="stop106"
         style="stop-color:#00145a"
         offset="1" /></linearGradient><clipPath
       id="clipPath4202"><circle
         r="58.234501"
         cx="63.755001"
         cy="59.375"
         id="ellipse4204" /></clipPath><radialGradient
       gradientTransform="matrix(5.3329843,0,0,5.3329843,109.38531,513.48948)"
       cx="65.405296"
       cy="19.1201"
       r="57.382702"
       fx="65.405296"
       fy="19.1201"
       id="XMLID_65_"
       gradientUnits="userSpaceOnUse"><stop
         id="stop65-3"
         style="stop-color:#0f80bc"
         offset="0" /><stop
         id="stop67-8"
         style="stop-color:#0b629b"
         offset="0.26429999" /><stop
         id="stop69-0"
         style="stop-color:#031747"
         offset="0.84390002" /><stop
         id="stop71-3"
         style="stop-color:#00022f"
         offset="1" /></radialGradient><radialGradient
       gradientTransform="matrix(5.3329843,0,0,5.3329843,109.38531,513.48948)"
       cx="64.551804"
       cy="14.1748"
       r="52.231701"
       fx="64.551804"
       fy="14.1748"
       id="XMLID_62_"
       gradientUnits="userSpaceOnUse"><stop
         id="stop36"
         style="stop-color:#0f80bc"
         offset="0" /><stop
         id="stop38"
         style="stop-color:#0a5f9e"
         offset="0.33759999" /><stop
         id="stop40"
         style="stop-color:#00145a"
         offset="1" /></radialGradient><radialGradient
       gradientTransform="matrix(5.3329843,0,0,5.3329845,109.38532,513.48942)"
       cx="64.568802"
       cy="7.2266002"
       r="104.221"
       fx="64.568802"
       fy="7.2266002"
       id="XMLID_61_"
       gradientUnits="userSpaceOnUse"><stop
         id="stop13-6"
         style="stop-color:#67c5d5"
         offset="0" /><stop
         id="stop15-4"
         style="stop-color:#66c2d3"
         offset="0.1604" /><stop
         id="stop17-1"
         style="stop-color:#62b9ce"
         offset="0.27950001" /><stop
         id="stop19-5"
         style="stop-color:#5ca8c6"
         offset="0.38519999" /><stop
         id="stop21-3"
         style="stop-color:#5392ba"
         offset="0.48320001" /><stop
         id="stop23-0"
         style="stop-color:#4874aa"
         offset="0.57590002" /><stop
         id="stop25-8"
         style="stop-color:#3a5097"
         offset="0.66460001" /><stop
         id="stop27-1"
         style="stop-color:#2a2781"
         offset="0.74849999" /><stop
         id="stop29-4"
         style="stop-color:#1b006d"
         offset="0.81459999" /><stop
         id="stop31"
         style="stop-color:#596aad"
         offset="1" /></radialGradient></defs><sodipodi:namedview
     pagecolor="#ffffff"
     bordercolor="#666666"
     borderopacity="1"
     objecttolerance="10"
     gridtolerance="10"
     guidetolerance="10"
     inkscape:pageopacity="0"
     inkscape:pageshadow="2"
     inkscape:window-width="1920"
     inkscape:window-height="1017"
     id="namedview308"
     showgrid="false"
     inkscape:zoom="0.38628982"
     inkscape:cx="401.50422"
     inkscape:cy="987.92094"
     inkscape:window-x="-32000"
     inkscape:window-y="-32000"
     inkscape:window-maximized="0"
     inkscape:current-layer="Layer_1" /><style
     type="text/css"
     id="style3">
	.st0{fill:url(#SVGID_1_);}
	.st1{fill:none;stroke:#1E1208;stroke-width:4;stroke-linecap:round;stroke-linejoin:round;}
	.st2{fill:url(#SVGID_2_);}
	.st3{fill:url(#SVGID_3_);}
	.st4{fill:url(#SVGID_4_);}
	.st5{fill:#FFD9CC;}
	.st6{fill:none;stroke:#1E1208;stroke-width:4;stroke-miterlimit:10;}
	.st7{fill:#1E1208;}
	.st8{fill:none;stroke:#000000;stroke-width:2;stroke-miterlimit:10;}
	.st9{fill:url(#SVGID_5_);}
	.st10{fill:none;stroke:#000000;stroke-width:4;stroke-linecap:round;stroke-linejoin:round;}
	.st11{fill:url(#SVGID_6_);}
</style><g
     id="g5"><g
       id="XMLID_4_"><g
         id="g8"><linearGradient
           id="SVGID_1_"
           gradientUnits="userSpaceOnUse"
           x1="607.9863"
           y1="473.8906"
           x2="272.3031"
           y2="1080.1549"><stop
             offset="0"
             style="stop-color:#EBD7AE"
             id="stop11" /><stop
             offset="4.265273e-02"
             style="stop-color:#CAB692"
             id="stop13" /><stop
             offset="9.349956e-02"
             style="stop-color:#AB9777"
             id="stop15" /><stop
             offset="0.1511"
             style="stop-color:#8F7B60"
             id="stop17" /><stop
             offset="0.2161"
             style="stop-color:#79654E"
             id="stop19" /><stop
             offset="0.2921"
             style="stop-color:#68543F"
             id="stop21" /><stop
             offset="0.3861"
             style="stop-color:#5D4935"
             id="stop23" /><stop
             offset="0.5178"
             style="stop-color:#564230"
             id="stop25" /><stop
             offset="0.8837"
             style="stop-color:#54402E"
             id="stop27" /><stop
             offset="1"
             style="stop-color:#54402E"
             id="stop29" /></linearGradient><path
           class="st0"
           d="M752.5,743.8c-7.1-0.4-14.1-0.7-21.2-1.1c5.1,10.9,12.9,20.4,22.5,27.4c-5.8,3.9-13.7,4.1-19.7,0.5     c10,13.3,18.5,27.8,25.3,43.1c-4.6-7.1-12-12.3-20.1-14.2c3.5,11.9,4.9,24.4,4.2,36.8c-6.2,0.1-12-5.6-12.2-12     c-0.9,18.4,2.6,37.1,10.1,53.8c-4.9-7.7-9.9-15.4-14.8-23.2c-0.7,12.2,1.2,24.6,5.5,36c-6.2-3.7-12.4-7.4-18.6-11     c-2.2,12.4-0.6,25.5,4.6,36.9c-2.8-5.7-7.5-10.4-13.2-13.1c1.6,11.9,4.9,23.6,9.9,34.6c-6.8,0.9-13.7,0.2-20.2-2     c3.7,13.1,7.8,26.1,12,39c-6.1-3.9-12.1-7.9-18.2-11.8c1.7,12.3,3.5,24.5,5.2,36.8c-7.4-2.6-14.4-6.5-20.5-11.4     c-0.8,12.5,0.3,25.1,3.2,37.3c-3.8-2.5-7.5-5.1-11.3-7.6c-2.7,6.8-3.8,14.3-3.1,21.7c-8.8-2-14.8-12.3-12.4-21.1     c-3.4,12.2-3.3,25.3,0.3,37.4c-7.3-0.6-13.7-7.4-13.9-14.9c-0.8,9-1.5,18-2.3,27c-10.4-6.7-20.7-13.3-31.1-20     c2.7,10.2,5.4,20.4,8,30.6c-7.4,1.3-15.3-3.4-18-10.5c-1.3,7.8-0.5,15.9,2.2,23.3c-9,0.5-18.1-3.7-23.6-11     c-4.3,7-6.2,15.7-5.2,24c-7.8-2.1-14.5-7.8-18-15.1c-3.6,4.5-5.5,10.4-5.3,16.2c-7.9-6.6-14.1-15.3-17.7-25.1     c-5.2,5.8-5.3,15.6-0.2,21.5c-11.5,0.4-22.7-7.7-26.2-18.9c-0.1,4.2-0.3,8.3-0.4,12.5c-19.6-3.6-40.6-12.2-56.1-24.9     c-15.5,12.7-34.1,21.4-53.7,24.9c-0.1-4.2-0.3-8.3-0.4-12.5c-3.5,11.2-14.8,19.3-26.3,18.9c5.1-5.9,5-15.7-0.1-21.5     c-3.6,9.7-9.8,18.5-17.7,25.1c0.2-5.8-1.7-11.7-5.3-16.2c-3.5,7.4-10.3,13-18.1,15.1c1.1-8.3-0.8-16.9-5.2-24     c-5.5,7.2-14.6,11.5-23.6,11c2.7-7.4,3.4-15.5,2.2-23.3c-2.7,7.1-10.6,11.7-18,10.5c2.7-10.2,5.3-20.4,8-30.6     c-10.4,6.7-20.7,13.3-31.1,20c-0.8-9-1.5-18-2.3-27c-0.2,7.5-6.5,14.4-13.9,14.9c3.6-12.1,3.8-25.3,0.3-37.4     c2.4,8.8-3.6,19.1-12.4,21.1c0.7-7.3-0.4-14.8-3.1-21.7c-3.8,2.5-7.5,5.1-11.3,7.6c2.9-12.2,4-24.8,3.2-37.3     c-6.1,5-13.1,8.8-20.5,11.4c1.7-12.3,3.5-24.5,5.2-36.8c-6.1,3.9-12.1,7.9-18.2,11.8c4.3-12.9,8.3-25.9,12.1-39     c-6.5,2.2-13.4,2.8-20.2,2c4.9-10.9,8.3-22.6,9.9-34.6c-5.6,2.6-10.3,7.2-13.1,12.9c5-11.4,6.6-24.4,4.4-36.7     c-6.2,3.7-12.4,7.4-18.6,11c4.3-11.4,6.2-23.8,5.5-36c-4.9,7.7-9.9,15.4-14.8,23.2c7.5-16.8,11-35.4,10.1-53.8     c-0.2,6.4-6,12-12.2,12c-0.6-12.4,0.8-24.9,4.2-36.8c-8.1,1.9-15.5,7.1-20.2,14.2c6.8-15.3,15.3-29.8,25.3-43.1     c-5.9,3.6-13.9,3.4-19.7-0.5c9.6-7,17.5-16.5,22.5-27.4c-7.1,0.4-14.1,0.7-21.2,1.1c10.5-9.5,19.8-20.5,27.4-32.5     c-7.1,1.3-14.3,2.6-21.4,3.9c9.4-11,17.8-22.9,25-35.5c-6.9,0.8-13.5,3.3-19.2,7.2c6.6-11.7,14.5-22.6,23.6-32.4     c-7.4,0.8-15,0.1-22.2-2c14.5-7.1,26.8-19,34.4-33.5c-5,3.4-11.5,4.4-17.3,2.7c7.8-5.8,14.9-12.7,20.9-20.5     c-9,1.1-18.1,2.1-27.1,3.2c16.8-13,33.7-26,50.5-38.9c-8.8,0.2-17.7,0.3-26.5,0.5c13.8-8.5,28.4-15.3,43.7-20.4     c-8.1-1.2-16.4-0.5-24.2,1.8c12-9.3,25-17.4,38.6-24c-8.7-0.8-17-5.3-22.6-12.2c14.4,2.2,29.3,0.2,42.8-5.5     c-6.6-8.9-17.4-14.4-28.3-14.6c73.8-22,149.5-37.5,226-46.1c76.5,8.6,122.1,24.1,196,46.1c-10.9,0.2-21.7,5.7-28.3,14.6     c13.4,5.7,28.4,7.6,42.8,5.5c-5.6,6.9-13.9,11.4-22.6,12.2c13.6,6.7,26.6,14.7,38.6,24c-7.8-2.4-16.1-3-24.2-1.8     c15.2,5.1,29.9,12,43.7,20.4c-8.8-0.2-17.7-0.3-26.5-0.5c16.9,13,33.7,26,50.6,38.9c-9-1.1-18.1-2.1-27.1-3.2     c6,7.8,13,14.7,20.9,20.5c-5.8,1.7-12.3,0.7-17.3-2.7c7.6,14.5,19.9,26.4,34.4,33.5c-7.2,2.1-14.8,2.8-22.2,2     c9,9.8,17,20.7,23.6,32.4c-5.7-4-12.4-6.5-19.2-7.2c7.2,12.6,15.5,24.5,25,35.5c-7.1-1.3-14.3-2.6-21.4-3.9     C732.7,723.4,741.9,734.3,752.5,743.8z"
           id="path31" /></g><g
         id="g33"><path
           class="st1"
           d="M168.9,916.7c2.8-5.6,7.5-10.2,13.1-12.9c-1.6,11.9-4.9,23.6-9.9,34.6c6.8,0.9,13.7,0.2,20.2-2     c-3.8,13.1-7.8,26.1-12.1,39c6.1-3.9,12.1-7.9,18.2-11.8c-1.8,12.3-3.5,24.5-5.2,36.8c7.4-2.6,14.3-6.5,20.5-11.4     c0.8,12.5-0.3,25.1-3.2,37.3c3.8-2.5,7.5-5.1,11.3-7.6c2.7,6.8,3.8,14.3,3.1,21.7c8.8-2,14.8-12.3,12.4-21.1     c3.4,12.2,3.3,25.3-0.3,37.4c7.3-0.6,13.7-7.4,13.9-14.9c0.8,9,1.5,18,2.3,27c10.4-6.7,20.7-13.3,31.1-20     c-2.7,10.2-5.4,20.4-8,30.6c7.4,1.3,15.3-3.4,18-10.5c1.2,7.8,0.5,15.9-2.2,23.3c9,0.5,18.1-3.7,23.6-11c4.4,7,6.2,15.7,5.2,24     c7.8-2.1,14.5-7.8,18.1-15.1c3.6,4.5,5.5,10.4,5.3,16.2c7.9-6.6,14.1-15.3,17.7-25.1c5.2,5.8,5.3,15.6,0.1,21.5     c11.5,0.4,22.7-7.7,26.3-18.9c0.1,4.2,0.3,8.3,0.4,12.5c19.6-3.6,38.2-12.2,53.7-24.9"
           id="path35" /><path
           class="st1"
           d="M168.8,916.9c-0.2,0.5-0.4,1-0.7,1.4C168.3,917.8,168.5,917.4,168.8,916.9z"
           id="path37" /><path
           class="st1"
           d="M168.8,916.9c0-0.1,0.1-0.1,0.1-0.2"
           id="path39" /><path
           class="st1"
           d="M458.4,445.1c-76.5,8.6-152.2,24.1-226,46.1c10.9,0.2,21.6,5.7,28.3,14.6c-13.4,5.7-28.4,7.6-42.8,5.5     c5.6,6.9,13.9,11.4,22.6,12.2c-13.6,6.7-26.6,14.7-38.6,24c7.8-2.4,16.1-3,24.2-1.8c-15.3,5.1-29.9,12-43.7,20.4     c8.8-0.2,17.7-0.3,26.5-0.5c-16.8,13-33.7,26-50.5,38.9c9-1.1,18.1-2.1,27.1-3.2c-6,7.8-13,14.7-20.9,20.5     c5.8,1.7,12.3,0.7,17.3-2.7c-7.6,14.5-19.9,26.4-34.4,33.5c7.2,2.1,14.8,2.8,22.2,2c-9.1,9.8-17,20.7-23.6,32.4     c5.7-4,12.4-6.5,19.2-7.2c-7.2,12.6-15.5,24.5-25,35.5c7.1-1.3,14.3-2.6,21.4-3.9c-7.7,12-16.9,23-27.4,32.5     c7.1-0.4,14.1-0.7,21.2-1.1c-5.1,10.9-12.9,20.4-22.5,27.4c5.8,3.9,13.7,4.1,19.7,0.5c-10,13.3-18.5,27.8-25.3,43.1     c4.7-7.1,12-12.3,20.2-14.2c-3.4,11.9-4.9,24.4-4.2,36.8c6.2,0.1,12-5.6,12.2-12c0.9,18.4-2.6,37.1-10.1,53.8     c4.9-7.7,9.9-15.4,14.8-23.2c0.7,12.2-1.2,24.6-5.5,36c6.2-3.7,12.4-7.4,18.6-11c2.2,12.3,0.6,25.3-4.4,36.7"
           id="path41" /><path
           class="st1"
           d="M718.1,916.9c-2.8-5.7-7.5-10.4-13.2-13.1c1.6,11.9,4.9,23.6,9.9,34.6c-6.8,0.9-13.7,0.2-20.2-2     c3.7,13.1,7.8,26.1,12,39c-6.1-3.9-12.1-7.9-18.2-11.8c1.7,12.3,3.5,24.5,5.2,36.8c-7.4-2.6-14.4-6.5-20.5-11.4     c-0.8,12.5,0.3,25.1,3.2,37.3c-3.8-2.5-7.5-5.1-11.3-7.6c-2.7,6.8-3.8,14.3-3.1,21.7c-8.8-2-14.8-12.3-12.4-21.1     c-3.4,12.2-3.3,25.3,0.3,37.4c-7.3-0.6-13.7-7.4-13.9-14.9c-0.8,9-1.5,18-2.3,27c-10.4-6.7-20.7-13.3-31.1-20     c2.7,10.2,5.4,20.4,8,30.6c-7.4,1.3-15.3-3.4-18-10.5c-1.3,7.8-0.5,15.9,2.2,23.3c-9,0.5-18.1-3.7-23.6-11     c-4.3,7-6.2,15.7-5.2,24c-7.8-2.1-14.5-7.8-18-15.1c-3.6,4.5-5.5,10.4-5.3,16.2c-7.9-6.6-14.1-15.3-17.7-25.1     c-5.2,5.8-5.3,15.6-0.2,21.5c-11.5,0.4-22.7-7.7-26.2-18.9c-0.1,4.2-0.3,8.3-0.4,12.5c-19.6-3.6-40.6-12.2-56.1-24.9"
           id="path43" /><path
           class="st1"
           d="M718.1,916.9c0.2,0.5,0.4,0.9,0.6,1.4C718.5,917.9,718.3,917.4,718.1,916.9z"
           id="path45" /><path
           class="st1"
           d="M458.4,445.1c76.5,8.6,122.1,24.1,196,46.1c-10.9,0.2-21.7,5.7-28.3,14.6c13.4,5.7,28.4,7.6,42.8,5.5     c-5.6,6.9-13.9,11.4-22.6,12.2c13.6,6.7,26.6,14.7,38.6,24c-7.8-2.4-16.1-3-24.2-1.8c15.2,5.1,29.9,12,43.7,20.4     c-8.8-0.2-17.7-0.3-26.5-0.5c16.9,13,33.7,26,50.6,38.9c-9-1.1-18.1-2.1-27.1-3.2c6,7.8,13,14.7,20.9,20.5     c-5.8,1.7-12.3,0.7-17.3-2.7c7.6,14.5,19.9,26.4,34.4,33.5c-7.2,2.1-14.8,2.8-22.2,2c9,9.8,17,20.7,23.6,32.4     c-5.7-4-12.4-6.5-19.2-7.2c7.2,12.6,15.5,24.5,25,35.5c-7.1-1.3-14.3-2.6-21.4-3.9c7.7,12,16.9,23,27.4,32.5     c-7.1-0.4-14.1-0.7-21.2-1.1c5.1,10.9,12.9,20.4,22.5,27.4c-5.8,3.9-13.7,4.1-19.7,0.5c10,13.3,18.5,27.8,25.3,43.1     c-4.6-7.1-12-12.3-20.1-14.2c3.5,11.9,4.9,24.4,4.2,36.8c-6.2,0.1-12-5.6-12.2-12c-0.9,18.4,2.6,37.1,10.1,53.8     c-4.9-7.7-9.9-15.4-14.8-23.2c-0.7,12.2,1.2,24.6,5.5,36c-6.2-3.7-12.4-7.4-18.6-11c-2.2,12.4-0.6,25.5,4.6,36.9"
           id="path47" /></g></g></g><g
     id="g49"><g
       id="XMLID_7_"><g
         id="g52"><radialGradient
           id="SVGID_2_"
           cx="564.2992"
           cy="85.2908"
           r="449.3284"
           gradientUnits="userSpaceOnUse"><stop
             offset="0"
             style="stop-color:#EBD792"
             id="stop55" /><stop
             offset="0"
             style="stop-color:#EBD79A"
             id="stop57" /><stop
             offset="0"
             style="stop-color:#EBD7A5"
             id="stop59" /><stop
             offset="0"
             style="stop-color:#EBD7AC"
             id="stop61" /><stop
             offset="0"
             style="stop-color:#EBD7AE"
             id="stop63" /><stop
             offset="5.939704e-02"
             style="stop-color:#D8C49E"
             id="stop65" /><stop
             offset="0.203"
             style="stop-color:#B09C7C"
             id="stop67" /><stop
             offset="0.3509"
             style="stop-color:#8F7B60"
             id="stop69" /><stop
             offset="0.5019"
             style="stop-color:#75614A"
             id="stop71" /><stop
             offset="0.6572"
             style="stop-color:#624E3A"
             id="stop73" /><stop
             offset="0.8195"
             style="stop-color:#584431"
             id="stop75" /><stop
             offset="1"
             style="stop-color:#54402E"
             id="stop77" /></radialGradient><path
           class="st2"
           d="M448.7,510L448.7,510c-9.6,6.9-14.4,6.6-25.9,9.2c-12.1-0.6-24.4,1.9-35.2,7.4c-0.3-2.2-0.6-4.3-0.9-6.4     c-2.3,3.3-7.4,4.3-10.7,2c-2.8,1.1-5.5,2.3-8.2,3.4c1.8-1,0.5-4.6-1.8-4.8c-2.4-0.2-4.3,1.8-5.9,3.6c-1.5,1.8-3.4,3.8-5.8,3.8     c-0.5-4.7-7.9-2.7-11.3,0.6c-0.9-1.9-1.9-3.8-2.8-5.6c-5.1,1.7-10.2,3.3-15.3,5c-1.2-4.6-1.4-9.5-0.8-14.2     c-4.1-0.2-8.2,0.6-11.9,2.3c0.1-2.5,0.3-5,0.4-7.5c-2.1,1.5-4.2,2.9-6.3,4.4c0.1-4.3-0.3-8.6-1.4-12.8c-4.3,3.5-9.3,6.1-14.6,7.5     c0.7-4.5,0.2-9.2-1.5-13.5c-2.8,3.4-6.4,6.1-10.4,7.8c1.1-3,1.4-6.4,0.8-9.5c-1.2,0.9-2.4,1.7-3.6,2.6c0.5-1.3-0.1-3.4-1.7-3.8     c-2.2-0.7-4.5,0.8-6.3,2.3c0.9-2.3,1.8-4.6,2.7-6.9c-2.2,1.1-4.3,2.1-6.5,3.2c0.3-9.2-0.4-18.5-2.2-27.5     c-3.7,1.2-6.9,3.8-8.8,7.1c-0.3-6.1-0.7-12.3-1-18.4c-3.4,2.5-6.8,5-10.2,7.5c0.2-6.4,1.1-12.8,2.9-18.9c-4,1.7-7.9,3.3-11.9,5     c1.8-4.6,3.6-9.2,5.3-13.8c-3.6,1.9-7.3,3.8-10.9,5.6c-0.1-8.7,2.7-17.4,7.9-24.4c-3.8,1.5-7.6,3.1-11.4,4.6     c5-10,9.9-20.1,14.9-30.1c-3.9,1.3-7.7,2.7-11.5,4c0.8-10.5,3.1-21,6.7-30.9c-6.7,3-13.5,6-20.2,9c3.7-13.2,12-25,23.1-33.1     c-5.6,2.4-11.2,4.8-16.8,7.2c6.6-10.1,13.1-20.2,19.6-30.3c-4.3,0.3-8.7,0.6-13,0.9c3.8-4.1,7.6-8.1,11.4-12.2     c-3.9,0.5-7.9-0.7-11-3.2c6.9-5.9,13.9-11.8,20.8-17.8c-5-1.1-10.1-1.6-15.3-1.2c9.7-6.3,19.3-12.6,29-18.9     c-6.4-2.2-13.7-1.8-19.8,1.3c8.9-5.7,17.8-11.4,26.7-17.2c-7.1-2.6-14.7-3.9-22.2-3.8c9.8-5.4,8.5-7.4,18.2-12.8     c-3.2-2.2-12.2-7.6-15.4-9.7c3.7,0.8,7.6,0.8,11.3-0.1c-7.7-3.5-14.2-9.8-18.4-17.7c3.7,1,7.4,2.1,11,3.1     c-5.4-4.8-9.7-11-12.7-17.9c4.7,1.4,9.3,2.7,14,4.1c-6.1-7.1-12.2-14.1-18.3-21.1c3.6-0.2,7.2-0.3,10.8-0.4     c-3.3-3.7-6.7-7.3-10-11c1.5-2.4,2.5-5.3,2.8-8.2c3,1.3,6,2.6,9,3.9c-3.2-7.9-5.2-16.4-6-25c2.4,3.4,7.9,1.2,9.4-2.8     c1.5-4,0.4-8.6-0.7-12.7c2.6-6.3,5.2-12.5,7.7-18.8c1.7,1.7,3.3,3.3,5,5c-1.5-5.5,3.9-10.3,9-11.6c5-1.3,10.7-1,14.9-4.3     c3.9,3.2,9.9,2.8,13.5-0.8c0.5,2.9,1,5.9,1.5,8.8c3-0.7,5.9-1.4,8.9-2.1c-1.2,3.2,3,6.7,5.5,4.7c1.7,4.2,3.9,8.2,6.7,11.7     c1.5-4.3,4.7-7.9,8.6-9.5c-1,4.6-1.9,9.2-2.9,13.9c2.3-2.1,5.4-3.1,8.3-2.5c-0.9,0.9-1.9,1.9-1.9,3.3c0.1,1.3,2.2,2,2.4,0.7     c0.1,2.1-1.1,4.3-2.8,5.1c3.2-1.2,6.8-0.7,9.6,1.3c-3-1.9-4.4,5.7-2.5,8.8c3.2,0.1,5.9-2.9,6.7-6c0.8-3.1,0.1-6.5-0.5-9.6     c1.3,1.9,2.6,3.8,3.9,5.7c1.6-3.8,3.2-7.6,4.8-11.4c1.4,2.4,2.8,4.8,4.1,7.2c0.7-2.8,2.4-5.4,4.8-7.1c0.9,1.8,1.9,3.7,2.8,5.5     c3.8-4.8,7.6-9.6,11.4-14.3c1.5,2.4,3,4.9,4.5,7.3c3.6-1.4,4-6.9,7.4-8.7c2.4-1.3,5.4-0.2,7.2,1.7c1.9,1.9,2.8,4.5,3.7,7     c3.1-5.3,6.6-10.4,10.5-15.2c0.9,1.7,1.8,3.4,2.7,5.1c1-4.2,3.3-8.2,6.4-11.2c2.3,3.9,5.6,7.2,9.5,9.5c2.2-2.1,4.3-4.3,6.5-6.4     c-1.5,3.4,1,8,4.7,8.5c3.7,0.5,7.3-3.3,6.6-7c2.9,2.1,5.8,4.2,8.7,6.3c1.3-2.5,2.6-5,3.9-7.5c1.9,3.6,4.3,7.3,7.8,9.4     c3.5,2.1,8.5,2.4,11.4-0.5c-1.1,2.1,3,3,5,1.6c1.9-1.4,4.7-3.5,6.3-1.7c1.9,2-0.3,7.1,2.4,7.1c0-2.7,2.7-5.1,5.4-4.7     c2.7,0.4,4.6,3.5,3.7,6c2.1-1.3,4.2-2.5,6.3-3.8c1.1,2.3,2.1,4.6,3.2,6.9c1.5-2.6,4.7-3.9,7.5-3.3c2.9,0.7,5.1,3.3,5.4,6.2     c0.3,3.3-0.9,8.3,2.4,8.8c2.5-3.6,5.5-6.8,8.9-9.5c1.8,5.4,7.7,9,13.3,8c0.4,1.3,0.8,2.6,1.2,3.9c3.6-2.1,6-6.1,6.3-10.3     c1.4,0.3,2.7,0.6,4.1,0.8c1.3-4.9,1.4-10.1,0.3-15c2.4,1.3,4.2,3.7,4.6,6.4c0.7-2.5,1.3-5.1,2-7.6c1.1,0.5,2.2,1.1,3.3,1.6     c1.7-3.5,4-6.7,6.8-9.5c1.1,2.5,2.1,5,3.2,7.5c2-4.5,8.1-6.5,12.4-4.1c0.3-2.2,0.5-4.4,0.8-6.6c2.6,0.4,5,1.9,6.4,4.2     c1.3-0.8,2.5-1.6,3.8-2.4c0.9,1.3,1.8,2.5,2.8,3.7c0.7-0.2,1.4-0.6,1.9-1.2l0.3,0.2c3.6-0.7,8.7,3,6.1,5.7     c4.8-0.3,9.7,0.1,14.4,1.4c-2,1.9-4.5,3.3-7.2,3.8c5.1,1.2,10.2,2.4,15.3,3.7c-1.8,1-3.7,1.9-5.5,2.9c1.8-0.2,3.7,0.3,5.1,1.5     c-0.8,2.1-1.6,4.3-2.4,6.4c3.6,0.2,7.1,1.2,10.3,2.9c-3.7,2.6-7,5.9-9.6,9.6c5-1,10.5,1.1,13.8,5.3c-3,2.9-7.7,3.8-11.5,2     c4,2.9,7.9,5.9,11.9,8.8c-3.8,2.3-8.2,3.5-12.5,3.4c2.6,3.1,5.3,6.2,7.9,9.3c-3.1,1-6.2,2-9.2,3c2.3,1.1,4.6,2.3,6.9,3.5     c-1.9,3.5-5.4,5.9-9.2,6.4c2,1,4,2,6,3c-1.1,2.8-3.2,5.1-5.7,6.4c1.5,1.4,3,2.8,4.5,4.3c-1.5,1.5-2.9,3-4.4,4.5     c1.2,1.5,2.4,2.9,3.6,4.4c-3.7,2.4-7.9,7.7-4.6,10.8c-2,0.9-3.9,1.7-5.8,2.6c1.5,4.6-1.9,10.2-6.4,10.6c1.7,2.3,3.4,4.7,5.1,7     c-0.7,0.3-1.1,0.4-1.2,0.5c0,0,0,0,0,0c0,0,0,0,0,0l0,0c0,0,0,0,0,0c-0.2,0.1-0.5,0.2-1.2,0.4c-4.5-1.7-5.5,1.6-10.1,2.8     c7.7,5.4,15.3,10.8,23,16.2c-5.9-0.1-11.9,1.1-17.5,3.8c7,5.7,14,11.4,21,17.2c-4.7-3.1-10.5-3.5-15.5-1.3     c7.6,6.3,15.2,12.6,22.8,18.9c-4-0.3-8.1,0.1-12,1.2c5.4,5.9,10.9,11.9,16.3,17.8c-2.4,2.5-5.5,3.6-8.6,3.2c3,4,6,8.1,8.9,12.2     c-3.4-0.3-6.8-0.6-10.2-0.9c5.1,10.1,10.3,20.2,15.4,30.3c-4.4-2.4-8.8-4.8-13.2-7.2c8.7,8.1,15.2,19.9,18.1,33.1     c-5.3-3-10.6-6-15.8-9c2.8,9.9,4.6,20.4,5.2,30.9c-3-1.4-6-2.7-9-4c3.9,10,7.8,20.1,11.7,30.1c-3-1.5-6-3-8.9-4.6     c4.1,7,6.3,15.7,6.2,24.4c-2.9-1.9-5.7-3.8-8.6-5.6c1.4,4.6,2.8,9.2,4.2,13.8c-3.1-1.7-6.2-3.3-9.4-5c1.4,6.2,2.2,12.5,2.3,18.9     c-2.7-2.5-5.3-5-8-7.5c-0.3,6.1-0.5,12.3-0.8,18.4c-1.5-3.3-4-5.9-6.9-7.1c-1.4,9.1-2,18.3-1.7,27.5c-1.7-1.1-3.4-2.1-5.1-3.2     c0.7,2.3,1.4,4.6,2.1,6.9c-1.4-1.4-3.2-2.9-5-2.3c-1.2,0.5-1.7,2.5-1.3,3.8c-0.9-0.9-1.9-1.7-2.8-2.6c-0.5,3.2-0.3,6.5,0.6,9.5     c-3.2-1.7-6-4.4-8.2-7.8c-1.3,4.3-1.7,9-1.2,13.5c-4.2-1.5-8.1-4.1-11.4-7.5c-0.8,4.2-1.2,8.5-1.1,12.8c-1.7-1.5-3.3-2.9-5-4.4     c0.1,2.5,0.2,5,0.3,7.5c-2.9-1.7-6.2-2.5-9.4-2.3c0.5,4.7,0.3,9.5-0.6,14.2c-4-1.7-8-3.3-12-5c-0.7,1.9-1.5,3.8-2.2,5.6     c-2.7-3.3-8.5-5.3-8.9-0.6c-1.9,0-3.3-2-4.5-3.8c-1.2-1.8-2.7-3.8-4.6-3.6c-1.8,0.2-2.9,3.8-1.4,4.8c-2.2-1.2-4.3-2.3-6.5-3.4     c-2.6,2.3-6.6,1.3-8.4-2c-0.2,2.1-0.5,4.3-0.7,6.4c-8.5-5.5-18.1-8-27.6-7.4c-8.3-2.4-13.2-5.2-19.3-10.3     C480.8,508.5,470.2,515.3,448.7,510z"
           id="path79" /><radialGradient
           id="SVGID_3_"
           cx="564.2992"
           cy="85.2908"
           r="449.3284"
           gradientUnits="userSpaceOnUse"><stop
             offset="0"
             style="stop-color:#EBD792"
             id="stop82" /><stop
             offset="0"
             style="stop-color:#EBD79A"
             id="stop84" /><stop
             offset="0"
             style="stop-color:#EBD7A5"
             id="stop86" /><stop
             offset="0"
             style="stop-color:#EBD7AC"
             id="stop88" /><stop
             offset="0"
             style="stop-color:#EBD7AE"
             id="stop90" /><stop
             offset="5.939704e-02"
             style="stop-color:#D8C49E"
             id="stop92" /><stop
             offset="0.203"
             style="stop-color:#B09C7C"
             id="stop94" /><stop
             offset="0.3509"
             style="stop-color:#8F7B60"
             id="stop96" /><stop
             offset="0.5019"
             style="stop-color:#75614A"
             id="stop98" /><stop
             offset="0.6572"
             style="stop-color:#624E3A"
             id="stop100" /><stop
             offset="0.8195"
             style="stop-color:#584431"
             id="stop102" /><stop
             offset="1"
             style="stop-color:#54402E"
             id="stop104" /></radialGradient><path
           class="st3"
           d="M616.1,495.2c0.4,0.4,0.8,0.7,1.1,1.1C616.7,496.2,616.3,495.8,616.1,495.2z"
           id="path106" /><linearGradient
           id="SVGID_4_"
           gradientUnits="userSpaceOnUse"
           x1="531.2159"
           y1="65.5779"
           x2="301.2159"
           y2="451.5779"><stop
             offset="0"
             style="stop-color:#EBD7AE"
             id="stop109" /><stop
             offset="4.265273e-02"
             style="stop-color:#CAB692"
             id="stop111" /><stop
             offset="9.349956e-02"
             style="stop-color:#AB9777"
             id="stop113" /><stop
             offset="0.1511"
             style="stop-color:#8F7B60"
             id="stop115" /><stop
             offset="0.2161"
             style="stop-color:#79654E"
             id="stop117" /><stop
             offset="0.2921"
             style="stop-color:#68543F"
             id="stop119" /><stop
             offset="0.3861"
             style="stop-color:#5D4935"
             id="stop121" /><stop
             offset="0.5178"
             style="stop-color:#564230"
             id="stop123" /><stop
             offset="0.8837"
             style="stop-color:#54402E"
             id="stop125" /><stop
             offset="1"
             style="stop-color:#54402E"
             id="stop127" /></linearGradient><path
           class="st4"
           d="M274.2,496.3c0.5-0.4,1-0.7,1.4-1.1C275.4,495.8,274.9,496.2,274.2,496.3z"
           id="path129" /></g><g
         id="g131"><path
           class="st1"
           d="M367.5,525.7c0.1,0,0.2-0.1,0.3-0.1c2.8-1.2,5.5-2.3,8.2-3.4c3.3,2.3,8.4,1.3,10.7-2     c0.3,2.1,0.6,4.3,0.9,6.4c10.8-5.5,23.1-8,35.2-7.4c11.5-2.5,16.3-2.3,25.9-9.1"
           id="path133" /><path
           class="st1"
           d="M275.6,495.2c1.2-0.9,2.4-1.7,3.6-2.6c0.6,3.2,0.3,6.5-0.8,9.5c4-1.7,7.6-4.4,10.4-7.8     c1.7,4.3,2.2,9,1.5,13.5c5.3-1.5,10.3-4.1,14.6-7.5c1,4.2,1.5,8.5,1.4,12.8c2.1-1.5,4.2-2.9,6.3-4.4c-0.1,2.5-0.3,5-0.4,7.5     c3.7-1.7,7.8-2.5,11.9-2.3c-0.6,4.7-0.4,9.5,0.8,14.2c5.1-1.7,10.2-3.3,15.3-5c0.9,1.9,1.9,3.8,2.8,5.6     c3.4-3.3,10.8-5.3,11.3-0.6c2.4,0,4.2-2,5.8-3.8c1.6-1.8,3.5-3.8,5.9-3.6c2.3,0.2,3.7,3.8,1.8,4.8"
           id="path135" /><path
           class="st1"
           d="M275.6,495.2c-0.2,0.6-0.7,1-1.4,1.1C274.6,495.9,275.1,495.6,275.6,495.2z"
           id="path137" /><path
           class="st1"
           d="M264.3,227.8c-9.8,5.4-8.5,7.4-18.2,12.8c7.6-0.1,15.2,1.1,22.2,3.8c-8.9,5.7-17.8,11.4-26.7,17.2     c6.1-3.1,13.4-3.5,19.8-1.3c-9.7,6.3-19.3,12.6-29,18.9c5.1-0.3,10.3,0.1,15.3,1.2c-6.9,5.9-13.9,11.9-20.8,17.8     c3,2.5,7.1,3.6,11,3.2c-3.8,4-7.6,8.1-11.4,12.2c4.3-0.3,8.7-0.6,13-0.9c-6.6,10.1-13.1,20.2-19.6,30.3     c5.6-2.4,11.2-4.8,16.8-7.2c-11.1,8.1-19.3,19.9-23.1,33.1c6.7-3,13.5-6,20.2-9c-3.6,9.9-5.9,20.4-6.7,30.9     c3.8-1.4,7.7-2.7,11.5-4c-5,10-9.9,20.1-14.9,30.1c3.8-1.5,7.6-3,11.4-4.6c-5.2,7-8,15.7-7.9,24.4c3.6-1.9,7.3-3.8,10.9-5.6     c-1.8,4.6-3.6,9.2-5.3,13.8c4-1.7,7.9-3.3,11.9-5c-1.8,6.2-2.8,12.5-2.9,18.9c3.4-2.5,6.8-5,10.2-7.5c0.3,6.1,0.7,12.3,1,18.4     c1.9-3.3,5.2-5.9,8.8-7.1c1.8,9.1,2.5,18.3,2.2,27.5c2.2-1.1,4.3-2.1,6.5-3.2c-0.9,2.3-1.8,4.6-2.7,6.9c1.9-1.4,4.1-2.9,6.3-2.3     c1.5,0.5,2.2,2.5,1.7,3.8"
           id="path139" /><path
           class="st1"
           d="M544,525.7c-0.1,0-0.1-0.1-0.2-0.1c-2.2-1.2-4.3-2.3-6.5-3.4c-2.6,2.3-6.6,1.3-8.4-2     c-0.2,2.1-0.5,4.3-0.7,6.4c-8.5-5.5-18.1-8-27.6-7.4c-8.3-2.4-13.2-5.2-19.3-10.3c-0.5-0.4-11.2,6.4-32.6,1.1     c-0.4-0.1-0.7-0.2-1.1-0.3"
           id="path141" /><path
           class="st1"
           d="M616.1,495.2c-0.9-0.9-1.9-1.7-2.8-2.6c-0.5,3.2-0.3,6.5,0.6,9.5c-3.2-1.7-6-4.4-8.2-7.8     c-1.3,4.3-1.7,9-1.2,13.5c-4.2-1.5-8.1-4.1-11.4-7.5c-0.8,4.2-1.2,8.5-1.1,12.8c-1.7-1.5-3.3-2.9-5-4.4c0.1,2.5,0.2,5,0.3,7.5     c-2.9-1.7-6.2-2.5-9.4-2.3c0.5,4.7,0.3,9.5-0.6,14.2c-4-1.7-8-3.3-12-5c-0.7,1.9-1.5,3.8-2.2,5.6c-2.7-3.3-8.5-5.3-8.9-0.6     c-1.9,0-3.3-2-4.5-3.8c-1.2-1.8-2.7-3.8-4.6-3.6c-1.8,0.2-2.9,3.8-1.4,4.8"
           id="path143" /><path
           class="st1"
           d="M616.1,495.2c0.2,0.6,0.5,1,1.1,1.1C616.9,495.9,616.5,495.6,616.1,495.2z"
           id="path145" /><path
           class="st1"
           d="M626.5,221.6c-4.5-1.7-5.5,1.6-10.1,2.8c7.7,5.4,15.3,10.8,23,16.2c-5.9-0.1-11.9,1.1-17.5,3.8     c7,5.7,14,11.4,21,17.2c-4.7-3.1-10.5-3.5-15.5-1.3c7.6,6.3,15.2,12.6,22.8,18.9c-4-0.3-8.1,0.1-12,1.2     c5.4,5.9,10.9,11.9,16.3,17.8c-2.4,2.5-5.5,3.6-8.6,3.2c3,4,6,8.1,8.9,12.2c-3.4-0.3-6.8-0.6-10.2-0.9     c5.1,10.1,10.3,20.2,15.4,30.3c-4.4-2.4-8.8-4.8-13.2-7.2c8.7,8.1,15.2,19.9,18.1,33.1c-5.3-3-10.6-6-15.8-9     c2.8,9.9,4.6,20.4,5.2,30.9c-3-1.4-6-2.7-9-4c3.9,10,7.8,20.1,11.7,30.1c-3-1.5-6-3-8.9-4.6c4.1,7,6.3,15.7,6.2,24.4     c-2.9-1.9-5.7-3.8-8.6-5.6c1.4,4.6,2.8,9.2,4.2,13.8c-3.1-1.7-6.2-3.3-9.4-5c1.4,6.2,2.2,12.5,2.3,18.9c-2.7-2.5-5.3-5-8-7.5     c-0.3,6.1-0.5,12.3-0.8,18.4c-1.5-3.3-4-5.9-6.9-7.1c-1.4,9.1-2,18.3-1.7,27.5c-1.7-1.1-3.4-2.1-5.1-3.2c0.7,2.3,1.4,4.6,2.1,6.9     c-1.4-1.4-3.2-2.9-5-2.3c-1.2,0.5-1.7,2.5-1.3,3.8"
           id="path147" /><path
           class="st1"
           d="M627.7,221.1C627.7,221.1,627.7,221.1,627.7,221.1"
           id="path149" /><path
           class="st1"
           d="M627.8,221.1C627.8,221.1,627.8,221.1,627.8,221.1"
           id="path151" /><line
           class="st1"
           x1="627.7"
           y1="221.1"
           x2="627.7"
           y2="221.1"
           id="line153" /><polyline
           class="st1"
           points="627.7,221.1 627.7,221.1 627.7,221.1    "
           id="polyline155" /><path
           class="st1"
           d="M612.2,87.2c3.6-0.7,8.7,3,6.1,5.7c4.8-0.3,9.7,0.1,14.4,1.4c-2,1.9-4.5,3.3-7.2,3.8     c5.1,1.2,10.2,2.4,15.3,3.7c-1.8,1-3.7,1.9-5.5,2.9c1.8-0.2,3.7,0.3,5.1,1.5c-0.8,2.1-1.6,4.3-2.4,6.4c3.6,0.2,7.1,1.2,10.3,2.9     c-3.7,2.6-7,5.9-9.6,9.6c5-1,10.5,1.1,13.8,5.3c-3,2.9-7.7,3.8-11.5,2c4,2.9,7.9,5.9,11.9,8.8c-3.8,2.3-8.2,3.5-12.5,3.4     c2.6,3.1,5.3,6.2,7.9,9.3c-3.1,1-6.2,2-9.2,3c2.3,1.1,4.6,2.3,6.9,3.5c-1.9,3.5-5.4,5.9-9.2,6.4c2,1,4,2,6,3     c-1.1,2.8-3.2,5.1-5.7,6.4c1.5,1.4,3,2.8,4.5,4.3c-1.5,1.5-2.9,3-4.4,4.5c1.2,1.5,2.4,2.9,3.6,4.4c-3.7,2.4-7.9,7.7-4.6,10.8     c-2,0.9-3.9,1.7-5.8,2.6c1.5,4.6-1.9,10.2-6.4,10.6c1.7,2.3,3.4,4.7,5.1,7c-0.7,0.3-1.1,0.4-1.2,0.5c0,0,0,0,0,0c0,0,0,0,0,0     c0,0,0,0,0,0c0,0,0,0,0,0c-0.2,0.1-0.5,0.2-1.2,0.4"
           id="path157" /><path
           class="st1"
           d="M264.3,227.8c-3.2-2.2-12.2-7.6-15.4-9.7c3.7,0.8,7.6,0.8,11.3-0.1c-7.7-3.5-14.2-9.8-18.4-17.7     c3.7,1,7.4,2.1,11,3.1c-5.4-4.8-9.7-11-12.7-17.9c4.7,1.4,9.3,2.7,14,4.1c-6.1-7.1-12.2-14.1-18.3-21.1c3.6-0.2,7.2-0.3,10.8-0.4     c-3.3-3.7-6.7-7.3-10-11c1.5-2.4,2.5-5.3,2.8-8.2c3,1.3,6,2.6,9,3.9c-3.2-7.9-5.2-16.4-6-25c2.4,3.4,7.9,1.2,9.4-2.8     c1.5-4,0.4-8.6-0.7-12.7c2.6-6.3,5.2-12.5,7.7-18.8c1.7,1.7,3.3,3.3,5,5c-1.5-5.5,3.9-10.3,9-11.6c5-1.3,10.7-1,14.9-4.3     c3.9,3.2,9.9,2.8,13.5-0.8c0.5,2.9,1,5.9,1.5,8.8c3-0.7,5.9-1.4,8.9-2.1c-1.2,3.2,3,6.7,5.5,4.7c1.7,4.2,3.9,8.2,6.7,11.7     c1.5-4.3,4.7-7.9,8.6-9.5c-1,4.6-1.9,9.2-2.9,13.9c2.3-2.1,5.4-3.1,8.3-2.5c-0.9,0.9-1.9,1.9-1.9,3.3c0.1,1.3,2.2,2,2.4,0.7     c0.1,2.1-1.1,4.3-2.8,5.1c3.2-1.2,6.8-0.7,9.6,1.3c-3-1.9-4.4,5.7-2.5,8.8"
           id="path159" /><path
           class="st1"
           d="M342.8,125.6c3.2,0.1,5.9-2.9,6.7-6c0.8-3.1,0.1-6.5-0.5-9.6c1.3,1.9,2.6,3.8,3.9,5.7     c1.6-3.8,3.2-7.6,4.8-11.4c1.4,2.4,2.8,4.8,4.1,7.2c0.7-2.8,2.4-5.4,4.8-7.1c0.9,1.8,1.9,3.7,2.8,5.5c3.8-4.8,7.6-9.6,11.4-14.3     c1.5,2.4,3,4.9,4.5,7.3c3.6-1.4,4-6.9,7.4-8.7c2.4-1.3,5.4-0.2,7.2,1.7c1.9,1.9,2.8,4.5,3.7,7c3.1-5.3,6.6-10.4,10.5-15.2     c0.9,1.7,1.8,3.4,2.7,5.1c1-4.2,3.3-8.2,6.4-11.2c2.3,3.9,5.6,7.2,9.5,9.5c2.2-2.1,4.3-4.3,6.5-6.4c-1.5,3.4,1,8,4.7,8.5     c3.7,0.5,7.3-3.3,6.6-7c2.9,2.1,5.8,4.2,8.7,6.3c1.3-2.5,2.6-5,3.9-7.5c1.9,3.6,4.3,7.3,7.8,9.4c3.5,2.1,8.5,2.4,11.4-0.5     c-1.1,2.1,3,3,5,1.6c1.9-1.4,4.7-3.5,6.3-1.7c1.9,2-0.3,7.1,2.4,7.1c0-2.7,2.7-5.1,5.4-4.7c2.7,0.4,4.6,3.5,3.7,6     c2.1-1.3,4.2-2.5,6.3-3.8c1.1,2.3,2.1,4.6,3.2,6.9c1.5-2.6,4.7-3.9,7.5-3.3c2.9,0.7,5.1,3.3,5.4,6.2c0.3,3.3-0.9,8.3,2.4,8.8     c2.5-3.6,5.5-6.8,8.9-9.5c1.8,5.4,7.7,9,13.3,8c0.4,1.3,0.8,2.6,1.2,3.9c3.6-2.1,6-6.1,6.3-10.3c1.4,0.3,2.7,0.6,4.1,0.8     c1.3-4.9,1.4-10.1,0.3-15c2.4,1.3,4.2,3.7,4.6,6.4c0.7-2.5,1.3-5.1,2-7.6c1.1,0.5,2.2,1.1,3.3,1.6c1.7-3.5,4-6.7,6.8-9.5     c1.1,2.5,2.1,5,3.2,7.5c2-4.5,8.1-6.5,12.4-4.1c0.3-2.2,0.5-4.4,0.8-6.6c2.6,0.4,5,1.9,6.4,4.2c1.3-0.8,2.5-1.6,3.8-2.4     c0.9,1.3,1.8,2.5,2.8,3.7c0.7-0.2,1.4-0.6,1.9-1.2c0.3-0.4,0.6-0.9,0.7-1.4"
           id="path161" /></g></g></g><g
     id="XMLID_2_"><g
       id="g164"><path
         class="st5"
         d="M278.9,166.6c-1.1-0.2-2.3-0.2-3.5-0.1C276.6,166.5,277.8,166.5,278.9,166.6z M279,166.6    c7.7,1.2,14.5,8.2,14.9,16.1c-4.9,0.8-9.7,1.6-14.6,2.4c2.3,1.2,4.6,2.3,7,3.5c-6.5,6.5-11.2,8.7-14.9,17.1    c-18.1-26.2-21.4-55.4-14-86.3c2.5-10.7,9-22.8,19.9-23.3c3.7-0.2,7.3,1.1,10.7,2.5c17.2,7.1,32.3,19.1,43.3,34.1    c-11.3,1.8-23.5-2.8-30.9-11.5c-2.1,7.7,1.9,16.7,8.9,20.5c-11.5-5.2-23.5-9.5-35.7-12.7c11.2,3.1,19.8,13.7,20.8,25.2    c-6.1-7.1-15.6-11.2-25-10.7c5.8,12.4,17.9,21.6,31.3,24C293.5,167.2,286.2,166.9,279,166.6z"
         id="path166" /></g><g
       id="g168"><path
         class="st6"
         d="M279,166.6c7.7,1.2,14.5,8.2,14.9,16.1c-4.9,0.8-9.7,1.6-14.6,2.4c2.3,1.2,4.6,2.3,7,3.5    c-6.5,6.5-11.2,8.7-14.9,17.1"
         id="path170" /><path
         class="st6"
         d="M278.9,166.6c-1.2,0-2.3-0.1-3.5-0.1C276.6,166.3,277.8,166.4,278.9,166.6z"
         id="path172" /><path
         class="st6"
         d="M278.9,166.6C279,166.6,279,166.6,278.9,166.6"
         id="path174" /><path
         class="st6"
         d="M309.2,141.6c-11.5-5.2-23.5-9.5-35.7-12.7c11.2,3.1,19.8,13.7,20.8,25.2c-6.1-7.1-15.6-11.2-25-10.7    c5.8,12.4,17.9,21.6,31.3,24c-7.2-0.3-14.5-0.6-21.7-0.9"
         id="path176" /><path
         class="st6"
         d="M309.2,141.6c0.7,0.4,1.4,0.7,2.1,1C310.6,142.3,309.9,142,309.2,141.6z"
         id="path178" /><path
         class="st6"
         d="M271.3,205.6c-18.1-26.2-21.4-55.4-14-86.3c2.5-10.7,9-22.8,19.9-23.3c3.7-0.2,7.3,1.1,10.7,2.5    c17.2,7.1,32.3,19.1,43.3,34.1c-11.3,1.8-23.5-2.8-30.9-11.5c-2.1,7.7,1.9,16.7,8.9,20.5"
         id="path180" /></g></g><g
     id="XMLID_3_"><g
       id="g183"><path
         class="st5"
         d="M600,166.6c1.1,0,2.2-0.1,3.3-0.1C602.2,166.3,601.1,166.4,600,166.6z M599.9,166.6    c-6.9,0.3-13.8,0.6-20.6,0.9c12.8-2.4,24.2-11.6,29.8-24c-8.9-0.6-18,3.5-23.7,10.7c0.9-11.5,9.1-22.1,19.7-25.2    c-11.6,3.2-22.9,7.5-33.9,12.7c6.6-3.8,10.4-12.7,8.4-20.4c-7,8.8-18.5,13.3-29.3,11.5c10.4-15,24.8-27,41.1-34.1    c3.2-1.4,6.7-2.7,10.2-2.5c10.4,0.5,16.5,12.6,18.9,23.3c7,30.9,1,64.9-16.2,91c-3.6-8.4-5.1-15.4-11.3-21.8    c2.2-1.2,4.4-2.3,6.6-3.5c-4.6-0.8-9.2-1.6-13.8-2.4C586.2,174.8,592.6,167.8,599.9,166.6z"
         id="path185" /><path
         class="st5"
         d="M603.3,166.4c-1.1,0.1-2.2,0.1-3.3,0.1C601.1,166.4,602.2,166.3,603.3,166.4z"
         id="path187" /><path
         class="st5"
         d="M569.2,142.6c0.7-0.3,1.4-0.7,2.1-1C570.6,142,569.9,142.3,569.2,142.6z"
         id="path189" /></g><g
       id="g191"><path
         class="st6"
         d="M599.9,166.6c-7.3,1.2-13.8,8.2-14.1,16.1c4.6,0.8,9.2,1.6,13.8,2.4c-2.2,1.2-4.4,2.3-6.6,3.5    c6.2,6.5,7.7,13.5,11.3,21.8"
         id="path193" /><path
         class="st6"
         d="M600,166.6c1.1,0,2.2-0.1,3.3-0.1C602.2,166.3,601.1,166.4,600,166.6z"
         id="path195" /><path
         class="st6"
         d="M600,166.6C600,166.6,600,166.6,600,166.6"
         id="path197" /><path
         class="st6"
         d="M571.2,141.6c10.9-5.2,22.3-9.4,33.9-12.7c-10.6,3.1-18.9,13.7-19.7,25.2c5.8-7.1,14.8-11.2,23.7-10.7    c-5.6,12.4-17,21.6-29.8,24c6.9-0.3,13.7-0.6,20.6-0.9"
         id="path199" /><path
         class="st6"
         d="M571.2,141.6c-0.7,0.4-1.3,0.7-2.1,1C569.9,142.3,570.5,141.9,571.2,141.6z"
         id="path201" /><path
         class="st6"
         d="M604.3,210.4c17.2-26.1,23.3-60.1,16.2-91c-2.4-10.7-8.5-22.8-18.9-23.3c-3.5-0.2-6.9,1.1-10.2,2.5    c-16.3,7.1-30.7,19.1-41.1,34.1c10.8,1.8,22.3-2.8,29.3-11.5c2,7.7-1.8,16.6-8.4,20.4"
         id="path203" /></g></g><g
     id="g205"><g
       id="XMLID_1_"><g
         id="g208"><path
           d="M475.7,468c2.6-0.9,7.3-5.3,9.3-7.5c2.3-2.3,2.8-5.5,1.4-8.1c-1.7-3.1-6.5-3.2-8.7-0.4s-1.9,5.4-1.9,8.9     C475.7,463.2,475.7,465.6,475.7,468z M446.4,465.3c0.5-4.3,0.8-7.8-1.9-11.3c-1.1-1.5-2.7-2.6-4.4-3.2c-3.1-1.1-7.5,0.5-7.5,3.8     c0,2.3,1.9,5,3.9,6.4C439.6,463.1,440.5,463,446.4,465.3z M475.4,478.6c-0.2,1.1-0.5,2.3-1.1,3.3c-1.7,3.3-5.4,5.2-9.1,5.6     c-3.7,0.4-7.4-0.6-10.8-2c-2-0.8-3.9-1.7-5.4-3.3c-1.6-1.7-2.4-4.1-2.8-6.7h0c-8.3-2.9-22.4-10-24.9-18.4     c-1-3.3-0.8-6.8-0.2-10.2c2.7-18,13.1-34.7,28.1-45.1c1.9-1.4,4-2.6,6.3-3.4c2.7-0.9,5.7-1,8.5-0.7c9.7,1.1,18.1,7.4,24.4,14.8     c8.1,9.6,13.4,22.1,11.6,34.5C498.2,459.2,488.8,472.9,475.4,478.6z"
           id="path210" /></g><g
         id="g212" /></g></g><g
     id="g214"><g
       id="g216"><path
         class="st7"
         d="M340.9,335.1c2.9-6.6,6.3-12.9,10.2-18.9c4.3-6.5,9-12.6,17.6-12.5c15.6,0.2,22.6,16.4,29.7,27.7    c1.7,2.7,6,0.2,4.3-2.5c-8.2-13.2-16.1-30-34-30.2c-17.2-0.2-26.3,20.6-32.1,33.9C335.3,335.5,339.6,338.1,340.9,335.1    L340.9,335.1z"
         id="path218" /></g></g><g
     id="g220"><g
       id="g222"><path
         class="st7"
         d="M502.9,330.9c2.9-6.6,6.3-12.9,10.2-18.9c4.3-6.5,9-12.6,17.6-12.5c15.6,0.2,22.6,16.4,29.7,27.7    c1.7,2.7,6,0.2,4.3-2.5c-8.2-13.2-16.1-30-34-30.2c-17.2-0.2-26.3,20.6-32.1,33.9C497.3,331.2,501.6,333.8,502.9,330.9    L502.9,330.9z"
         id="path224" /></g></g><g
     id="g226"><g
       id="g228"><path
         class="st7"
         d="M392.7,446.9c-10.4,29.4,21.2,54.2,45.2,63.6c25.3,9.9,55.8-1.2,70.7-23.5c9-13.4,12-29.8,10.8-45.7    c-0.2-3.2-5.2-3.2-5,0c1.2,16.1-2,32.7-11.9,45.8c-9.4,12.4-24.3,20.3-39.7,21.8c-16.7,1.6-31.5-5.8-44.7-15.4    c-14.1-10.3-27-26.9-20.5-45.3C398.6,445.2,393.7,443.9,392.7,446.9L392.7,446.9z"
         id="path230" /></g></g><line
     class="st8"
     x1="509.2"
     y1="442.9"
     x2="617.8"
     y2="403.3"
     id="line232" /><line
     class="st8"
     x1="509.5"
     y1="453.4"
     x2="643.2"
     y2="428"
     id="line234" /><line
     class="st8"
     x1="509"
     y1="462.8"
     x2="670.5"
     y2="460"
     id="line236" /><line
     class="st8"
     x1="506.2"
     y1="471.4"
     x2="613.8"
     y2="485"
     id="line238" /><line
     class="st8"
     x1="403.9"
     y1="447"
     x2="295"
     y2="407.3"
     id="line240" /><line
     class="st8"
     x1="400.5"
     y1="456.8"
     x2="269.7"
     y2="432"
     id="line242" /><line
     class="st8"
     x1="400.5"
     y1="466.8"
     x2="242.4"
     y2="464"
     id="line244" /><line
     class="st8"
     x1="405.1"
     y1="475.6"
     x2="299"
     y2="489"
     id="line246" /><ellipse
     cx="449.3898"
     cy="830.13562"
     id="ellipse33"
     style="overflow:visible;fill:url(#XMLID_61_);stroke:#110070;stroke-width:5.97827578;stroke-miterlimit:4;stroke-dasharray:none;stroke-opacity:1"
     rx="313.5528"
     ry="313.55276" /><path
     transform="matrix(5.3329843,0,0,5.3329843,108.73813,513.48948)"
     inkscape:connector-curvature="0"
     d="m 38.752,6.095 c -10.573,4.747 -18.551,14.531 -18.551,14.531 0,0 0.938,2.145 1.265,1.987 0.33,-0.156 -2.361,5.628 -0.386,5.954 1.985,0.325 7.696,-3.578 6.637,-3.22 -1.056,0.356 0.595,-2.112 0.595,-2.112 0,0 2.972,-1.318 1.214,0.202 -1.743,1.511 2.318,0.187 2.255,0.496 -0.064,0.311 0.525,1.147 0.525,1.147 0,0 -1.393,1.494 0.406,0.892 6.172,-2.075 0.812,1.779 0.812,1.779 l 0.106,1.312 2.67,0.464 1.578,-0.15 c 0,0 1.381,-2.436 1.914,-3.098 0.535,-0.663 1.028,-3.284 1.028,-3.284 0,0 0.803,-0.084 -0.213,-0.468 -1.016,-0.385 0.972,-1.583 1.886,-1.434 l 4.303,-1.336 c 0.138,0.068 0.292,0.103 0.47,0.082 0.985,-0.114 0.489,1.603 1.294,2.25 0.796,0.644 2.627,1.264 3.283,0.469 -0.784,-0.594 0.674,-2.011 0.86,-0.751 0.187,1.249 0.767,0.723 0.767,0.723 0,0 1.543,-2.654 2.036,-4.177 0.27,0.377 2.788,-3.309 2.025,-5.067 -0.771,-1.78 0.479,-3.456 0.34,-3.715 -0.143,-0.256 -0.896,0.528 -0.34,0.34 0.561,-0.192 -1.589,0.772 -1.874,-2.061 -0.288,-2.89 -0.707,0.243 -0.985,1.169 0.377,1.508 4.29,-6.093 4.29,-6.093 l 5.044,-2.057 c 0,0.004 -11.481,-0.957 -25.254,5.226 z"
     clip-path="url(#XMLID_68_)"
     id="path117"
     style="overflow:visible;fill:url(#XMLID_70_)" /><g
     id="g248"><g
       id="XMLID_5_"><g
         id="g251"><linearGradient
           id="SVGID_5_"
           gradientUnits="userSpaceOnUse"
           x1="205.8066"
           y1="597.1771"
           x2="294.3022"
           y2="739.6699"><stop
             offset="0"
             style="stop-color:#5C4A3B"
             id="stop254" /><stop
             offset="3.744924e-02"
             style="stop-color:#554235"
             id="stop256" /><stop
             offset="0.1463"
             style="stop-color:#453127"
             id="stop258" /><stop
             offset="0.2819"
             style="stop-color:#39261D"
             id="stop260" /><stop
             offset="0.472"
             style="stop-color:#331F18"
             id="stop262" /><stop
             offset="1"
             style="stop-color:#311D16"
             id="stop264" /></linearGradient><path
           class="st9"
           d="M290.6,742.1c-3.5,3.3-9.5,8.4-14.3,8c-4.8-0.4-9.5-2.3-13.6-5c-8.7-5.6-15.1-14-20.4-23     c-18.7,5.7-31.8-26.5-33.3-44.6c-0.6-7.6,0-15.5-2.6-22.7c-2.7-7.6-8.7-13.7-11.4-21.3c-3.3-9.2-1.4-19.8,3.9-28     c5.2-8.2,13.4-14.3,22.3-18.3c5.4-2.5,11.2-4.3,17.1-4.8c1.2-0.1,2.5-0.2,3.5,0.4c1.3,0.6,2,2,2.6,3.3c2,4.4,3.1,9.1,4.7,13.6     c8,22.5,27.4,38.5,45.1,54.7c4.2,3.8,8.4,7.8,11.2,12.7c2.8,4.9,1.1,16-1,21.3c5.9,7,11,14.6,12.4,23.5c0.8,5.4-0.5,12-5.4,14.3     l-2.4,0.7c1.8,2,3,3.8,3.3,5.2c0.9,4.8-2.6,9.8-7.2,11.5C300.2,745.4,294.9,744.4,290.6,742.1z"
           id="path266" /></g><g
         id="g268"><path
           class="st10"
           d="M242.3,722.2c-18.7,5.7-31.8-26.5-33.3-44.6c-0.6-7.6,0-15.5-2.6-22.7c-2.7-7.6-8.7-13.7-11.4-21.3     c-3.3-9.2-1.4-19.8,3.9-28c5.2-8.2,13.4-14.3,22.3-18.3c5.4-2.5,11.2-4.3,17.1-4.8c1.2-0.1,2.5-0.2,3.5,0.4c1.3,0.6,2,2,2.6,3.3     c2,4.4,3.1,9.1,4.7,13.6c8,22.5,27.4,38.5,45.1,54.7c4.2,3.8,8.4,7.8,11.2,12.7c2.8,4.9,1.1,16-1,21.3"
           id="path270" /><path
           class="st10"
           d="M230.1,699.1c2.3,4.7,4.7,9.3,7.1,14c1.6,3,3.3,6.1,5.1,9.1c5.4,9,11.7,17.4,20.4,23     c4.1,2.6,8.7,4.6,13.6,5c4.9,0.4,10.8-4.7,14.3-8"
           id="path272" /><path
           class="st10"
           d="M288.2,672.5c3.3,2.3,6.1,5.3,8.9,8.2c2.4,2.5,4.8,5.1,7,7.7c5.9,7,11,14.6,12.4,23.5     c0.8,5.4-0.5,12-5.4,14.3"
           id="path274" /><path
           class="st10"
           d="M251.2,696.2c8.2,13,17.7,25.2,28.2,36.4c3.4,3.6,6.9,7.1,11.2,9.5c4.3,2.3,9.6,3.3,14.2,1.5     c4.6-1.8,8.1-6.7,7.2-11.5c-0.3-1.5-1.5-3.3-3.3-5.2c-4.5-5-12.1-10.8-14.4-13.8c-6.1-8.3-11.3-18.1-17.1-32.9"
           id="path276" /></g></g></g><path
     inkscape:connector-curvature="0"
     d="m 465.19562,610.81644 c 0,0 -6.51157,3.76509 -7.33285,9.99934 -0.82662,6.2236 -6.93181,2.9038 -9.83296,4.33305 0.75195,3.11446 -0.16532,6.49958 -0.16532,6.49958 l -3.83336,-3.33312 c 0.005,-0.005 -13.71109,6.11695 -14.6657,10.66597 -1.9252,5.01834 6.37719,13.2898 10.49959,10.66597 4.13306,-2.63982 9.99933,-7.99947 9.99933,-7.99947 0,0 6.20493,5.07167 3.66643,8.66609 -2.55449,3.58377 -12.71915,7.6315 1.99988,5.99961 15.09767,-1.66922 17.90655,-4.78635 17.8319,-7.66617 -0.08,-2.86914 0.71995,-13.1178 3.33311,-13.83242 0.08,-5.27966 -10.25,-4.88101 -6.66623,-10.166 3.58376,-5.25832 -4.83275,-13.83243 -4.83275,-13.83243 z m 206.15291,135.32448 c -1.55723,0.50129 -1.35831,1.81588 -3.16619,2.33317 -1.79723,0.50131 -5.01834,0.79863 -6.66623,-0.83326 -2.83716,-2.83183 -3.99174,-0.005 -1.66657,3.83307 -3.35445,-0.76795 -5.65989,2.16652 -2.8334,2.16652 2.83714,0 10.20359,2.99981 3.50003,2.99981 -2.06866,0 -2.73636,0.36851 -2.83341,0.83327 -0.002,0.011 -0.16532,-0.011 -0.16532,0 -1.0954,0.38345 -2.39558,1.0506 -3.1662,2.33318 -1.54657,2.55985 -3.62003,-0.16638 -5.1666,-0.16638 -0.26131,1.53056 -1.33324,2.6665 -1.33324,2.6665 l -0.99994,-2.16653 c 0,-0.005 -7.21979,-0.29172 -8.49971,1.4999 -1.79721,1.78121 0.18666,7.09953 2.50011,6.83289 2.30918,-0.25065 5.9996,-1.16659 5.9996,-1.16659 0,0 1.79722,3.4651 0,4.4997 -1.79721,1.01328 -7.11686,0.66529 -0.33064,3.16647 6.95422,2.55448 8.81543,1.77988 9.33272,0.4997 0.51731,-1.26926 2.87022,-5.75563 4.16613,-5.49965 1.02926,-2.29851 -3.58111,-4.28639 -0.99994,-5.83295 1.41272,-0.84923 1.44258,-2.79188 1.16685,-4.49971 0.83729,0.29865 1.68897,0.39998 2.33319,0.33332 2.57584,-0.25066 2.6969,-0.43465 4.49945,0.33331 1.81321,0.76261 5.33298,-0.83328 5.33298,-0.83328 0,0 1.41057,-4.33171 4.99967,-4.83302 1.54656,-6.14893 -4.46904,-9.01674 -5.9996,-8.49944 z M 375.2015,895.63115 c -0.92099,0 -1.04578,4.422 1.33327,13.8324 -3.63178,-6.76226 -4.7853,4.605 -4.16667,9.66605 0.6133,5.08233 -5.42738,18.31613 -5.83269,8.33283 -0.38397,-10.02069 -5.00926,-6.98362 -4.83328,4.99964 0.17065,11.95118 -2.50917,10.72323 -2.33319,12.49918 0.17599,1.78124 -5.51537,9.42605 -8.83248,8.99943 -3.31712,-0.4533 -6.48384,7.94744 -2.50011,13.49905 -3.4291,0.27736 -0.25597,14.8391 5.99962,16.9989 -1.80256,15.66307 1.13752,15.31502 2.8334,11.83258 0.90661,-7.8395 10.58438,-22.27593 5.83269,-6.66623 -4.71968,15.51362 4.19972,0.60135 7.66617,-3.49977 1.40791,-8.91147 8.6661,-9.33269 8.6661,-9.33269 0,0 2.91448,5.03835 9.66603,1.16655 2.05853,9.64204 5.13833,3.73973 8.3328,4.83308 3.20512,1.09324 7.44911,5.9809 7.83307,7.66612 0.43198,0.31463 0.0533,2.92651 -0.99993,0.49971 -0.0747,-2.10114 -5.94254,-0.51734 -6.16653,1.99984 -0.75194,8.48488 10.13428,5.98628 12.16614,0.99997 2.0532,-4.99171 8.0752,-0.48262 4.16613,2.99982 -3.90908,3.49309 0.83087,11.24999 5.83321,8.33279 -3.03447,4.6396 7.36859,7.2955 13.16554,5.3329 5.45032,6.2077 15.94189,5.961 18.16574,1.1667 2.23453,-4.8157 2.92089,-4.5331 11.16568,-4.6664 8.27679,-0.1493 3.45577,-12.01392 -3.99975,-13.83242 -7.4235,-1.83459 -9.35405,-10.44601 -8.66609,-9.16614 0,0 -0.66502,-7.25017 -2.49957,-3.66642 -1.83454,3.57845 -7.16647,-2.49978 -7.16647,-2.49978 l 2.66649,-6.66623 c 8.2608,-5.66902 -3.49949,-12.3326 -3.49949,-12.3326 0,0 2.36251,-9.95135 -3.33312,-11.99914 -5.66363,-2.05859 1.67723,-10.48865 -0.99994,-16.49896 -2.67716,-5.98364 -11.1102,-14.72832 -16.8325,-11.83258 2.77849,5.66362 -9.01914,9.88201 -6.83262,1.99995 2.17587,-7.90884 -2.33318,-6.49966 -2.33318,-6.49966 0,0 -6.47158,-8.20606 -12.99914,-0.49971 -0.54397,-2.97578 -3.95441,-8.23273 -10.99928,-6.49956 0,0 -0.30399,-3.49842 -6.66624,-3.99967 -1.11085,-4.87167 -2.28358,-7.50141 -2.99981,-7.49953 z m 99.82655,2.33319 c 0,0 -3.6195,0.26821 -5.16607,2.83313 -1.54656,2.55445 -3.62003,-0.16635 -5.16659,-0.16635 -0.26132,1.53585 -1.16632,2.66646 -1.16632,2.66646 l -0.99994,-2.16652 c 0,0 -7.21446,-0.29169 -8.49971,1.49991 -1.79721,1.78122 0.19199,7.08348 2.5001,6.83291 2.31451,-0.26137 5.83269,-1.16665 5.83269,-1.16665 0,0 1.79721,3.47042 0,4.49972 -1.80789,1.01331 -6.93928,0.67598 -0.16532,3.16649 6.94887,2.55985 8.81541,1.7798 9.33271,0.49971 0.50663,-1.27998 2.70916,-5.5837 3.99975,-5.33301 1.03992,-2.29859 -3.57578,-4.46378 -0.99994,-5.99963 2.57583,-1.55194 0.5013,-7.16617 0.5013,-7.16617 z"
     id="path42"
     style="overflow:visible;fill:url(#XMLID_62_)" /><path
     transform="matrix(5.3329843,0,0,5.3329843,109.38531,513.48948)"
     inkscape:connector-curvature="0"
     d="m 65.061,1.002 c -0.912,0.203 0.613,3.503 0.613,3.503 0,0 -0.055,2.216 0.321,2.329 0.374,0.113 2.852,0.733 4.147,2.345 1.301,1.614 0.625,2.463 -0.458,1.997 -1.084,-0.465 -0.797,0.959 -0.797,0.959 0,0 3.27,1.063 0.8,0.995 -2.475,-0.066 1.666,1.741 1.393,1.93 -0.273,0.191 -0.429,1.231 -0.429,1.231 0,0 -2.183,0.182 -0.333,0.959 6.26,2.637 -0.669,1.925 -0.669,1.925 l -0.884,1.087 1.749,2.194 1.345,0.962 c 0,0 2.833,-0.945 3.716,-1.093 0.884,-0.146 3.114,-1.815 3.114,-1.815 0,0 0.669,0.478 0.169,-0.497 -0.501,-0.976 1.841,-0.54 2.425,0.186 l 4.134,1.867 c 0.054,0.144 0.146,0.274 0.292,0.375 0.806,0.565 -0.729,1.535 -0.573,2.562 0.156,1.016 1.093,2.704 2.121,2.526 -0.18,-0.969 1.851,-1.086 1.144,-0.006 -0.706,1.077 0.077,1.056 0.077,1.056 0,0 0.653,1.521 2.034,0.676 -0.056,0.464 0.227,1.397 1.413,1.459 0,0 -0.126,0.506 0.848,0.865 -0.132,1.737 0.424,1.792 0.561,-0.846 0.245,1.157 0.992,-0.471 1.141,-1.25 0.15,-0.784 1.756,-2.505 1.322,-0.984 -0.431,1.508 4.735,2.06 5.308,0.259 0.578,-1.815 2.637,-2.763 2.699,-3.038 0.062,-0.281 -4.583,-0.712 -4.07,-0.493 0.514,0.219 1.47,-0.948 1.115,-1.986 0.576,0.116 0.83,-2.301 -0.083,-2.927 1.143,-2.405 0.651,-2.48 0.182,-2.001 -0.57,1.205 -2.922,3.023 -1.327,0.783 1.609,-2.263 -0.653,-0.284 -1.438,0.208 -0.689,1.341 -1.899,1.08 -1.899,1.08 0,0 -0.222,-0.911 -1.516,-0.607 0.151,-1.612 -0.653,-0.838 -1.12,-1.154 -0.285,-0.193 -0.558,-0.627 -0.726,-0.999 1.115,0.452 2.612,0.933 2.354,0.104 -0.167,-0.542 2.112,0.643 2.192,0.396 l 2.848,-0.396 2.769,-1.75 C 85.388,0.164 65.061,1.002 65.061,1.002 Z"
     clip-path="url(#XMLID_68_)"
     id="path108"
     style="overflow:visible;fill:url(#XMLID_69_)" /><g
     id="g278"><g
       id="XMLID_6_"><g
         id="g281"><linearGradient
           id="SVGID_6_"
           gradientUnits="userSpaceOnUse"
           x1="676.6357"
           y1="589.8428"
           x2="591.14"
           y2="735.3356"><stop
             offset="0"
             style="stop-color:#5C4A3B"
             id="stop284" /><stop
             offset="3.675818e-03"
             style="stop-color:#5B493B"
             id="stop286" /><stop
             offset="0.1706"
             style="stop-color:#49362A"
             id="stop288" /><stop
             offset="0.3612"
             style="stop-color:#3B281F"
             id="stop290" /><stop
             offset="0.5957"
             style="stop-color:#331F18"
             id="stop292" /><stop
             offset="1"
             style="stop-color:#311D16"
             id="stop294" /></linearGradient><path
           class="st11"
           d="M625.6,729.6c-4.3,3.7-9.5,6.4-15.1,7.8c-4.5,1.1-10.4,0.7-12.2-3.6l-2-1.6c-4.8,2.1-9.8,2.8-14.3,0.5     c-1.4-0.7-2.7-1.8-3.5-3.1c-0.9-1.6-1.1-3.4-1.1-5.3c0.1-4.3,1.7-8.3,3.9-12.1l-1.7-1c-3.8-1.4-6.4-5.3-7-9.3     c-0.6-4,0.3-8.2,1.8-12c1.4-3.6,3.4-7,5.7-10.1l-0.9-0.2c-7.4-6.7-2.6-20.1,3.4-28.1c6-8,15.1-12.9,23.1-19     c14.4-10.9,25.4-26.2,31.3-43.2c1.9-5.5,4.4-12.3,10.2-13.2c2.2-0.3,4.4,0.3,6.5,1.2c17.2,7,27.1,25.6,30.6,43.8     c1.3,6.8,1.8,13.8,0.5,20.6c-1.4,6.8-4.7,13.1-7.2,19.6c-4.6,11.7-6.7,24.2-10.2,36.3c-3.5,12.1-8.6,24.2-17.8,32.7     C642.8,736.8,628.5,742.8,625.6,729.6z"
           id="path296" /></g><g
         id="g298"><path
           class="st10"
           d="M579.2,679.7c-7.4-6.7-2.6-20.1,3.4-28.1c6-8,15.1-12.9,23.1-19c14.4-10.9,25.4-26.2,31.3-43.2     c1.9-5.5,4.4-12.3,10.2-13.2c2.2-0.3,4.4,0.3,6.5,1.2c17.2,7,27.1,25.6,30.6,43.8c1.3,6.8,1.8,13.8,0.5,20.6     c-1.4,6.8-4.7,13.1-7.2,19.6c-4.6,11.7-6.7,24.2-10.2,36.3c-3.5,12.1-8.6,24.2-17.8,32.7c-6.7,6.3-21,12.2-24-0.9"
           id="path300" /><path
           class="st10"
           d="M646.9,695.9c-2.3,4.7-4.7,9.4-7.2,14c-3.9,7.2-8,14.4-14.2,19.8c-4.3,3.7-9.5,6.4-15.1,7.8     c-4.5,1.1-10.4,0.7-12.2-3.6"
           id="path302" /><path
           class="st10"
           d="M597.2,666.2c-6.7,3-12.6,7.8-17.1,13.7c-2.3,3.1-4.3,6.5-5.7,10.1c-1.5,3.8-2.5,7.9-1.8,12     c0.7,4,3.2,7.9,7,9.3"
           id="path304" /><path
           class="st10"
           d="M617.5,671.9c-10.2,9-20.4,19.5-30.6,32.4c-2,2.5-4,5.2-5.6,8c-2.2,3.8-3.8,7.8-3.9,12.1     c-0.1,1.8,0.1,3.7,1.1,5.3c0.8,1.4,2.1,2.4,3.5,3.1c4.5,2.3,9.6,1.5,14.3-0.5c2.7-1.2,5.3-2.8,7.6-4.5c11.9-8.8,23-25.9,31.7-39"
           id="path306" /></g></g></g><path
     inkscape:connector-curvature="0"
     d="m 590.23383,765.8143 c -0.22398,-0.65596 2.04787,-3.30645 1.43991,0.12799 -1.39725,2.44251 5.6423,4.6397 7.6155,1.91986 6.61824,-9.06607 -6.23958,-13.44977 -11.81789,-9.23671 -5.63164,4.25038 -8.73543,-4.86369 -2.26651,-6.15961 6.44758,-1.30658 6.99153,-12.95915 -0.11199,-13.00181 6.27158,-3.09313 -2.41585,-12.36186 -9.59405,-13.94576 -1.15725,-9.97268 -11.6739,-16.31359 -17.20421,-12.6925 -5.58362,3.63177 -6.06359,2.99181 -14.24441,-1.9732 -8.14878,-4.94368 -12.07386,10.282 -6.07959,16.93223 6.0316,6.69822 1.65856,17.49751 1.90921,15.65231 0,0 -2.27185,4.08506 -2.12252,5.61562 -6.9009,2.34118 -8.91676,-7.37551 -13.19914,-9.52471 -3.11979,4.06908 -8.15947,6.2396 -8.15947,6.2396 l 0.37865,-8.28213 c 0,0 -21.42261,-11.66857 -28.0035,-8.39945 -8.11147,2.5065 -10.03134,21.28394 -2.66651,24.03043 7.37552,2.77848 -9.25272,9.69535 7.42886,27.28355 17.13487,18.05748 23.75844,18.57478 27.25688,15.6363 0.86395,-0.74127 2.35718,-1.85054 4.18106,-3.08246 0.16532,0.69329 0.44264,1.35992 0.86928,1.9892 4.28771,6.44758 -9.96736,11.52992 -11.95656,20.76664 -2.0212,9.33806 -0.15998,26.70226 8.29814,27.29422 1.61055,-9.25272 17.43884,-5.98361 8.82608,2.39985 -8.76744,8.54876 -2.6185,10.05801 -2.6185,10.05801 0,0 0.41598,16.0149 13.82309,10.89531 -0.38929,0.91729 -0.70394,2.09045 -0.8906,3.37043 -3.74909,-0.75734 -12.91116,-1.90393 -15.15101,4.48505 -2.82648,8.0634 -14.7937,-2.73049 -23.16649,0.89062 -8.33545,3.59444 -20.49999,15.39625 -16.40425,23.69446 7.87148,-3.73312 13.89775,13.09778 2.90114,9.64201 -11.03395,-3.46644 -8.89008,3.10906 -8.89008,3.10906 0,0 -11.48725,9.06084 -0.73063,18.70814 -4.13306,0.62936 -11.47657,5.23171 -9.00207,15.32703 0,0 -4.71969,0.17065 -5.35433,9.2047 -15.39632,3.10376 -14.45771,7.88216 8.70878,2.64518 -9.34872,4.85303 6.53824,7.13552 13.57776,6.49029 7.05022,-0.64005 25.55567,8.48472 11.65259,8.57534 -13.92976,0.0849 -9.7807,6.90094 6.90087,7.22625 16.65491,0.3413 14.9057,4.2024 17.3802,4.03176 2.47451,-0.17065 13.24714,8.32479 12.66051,13.03386 -0.60264,4.71434 11.28459,9.60464 19.01741,4.20224 0.39464,4.9011 20.72399,1.0773 23.73179,-7.75943 22.01456,3.36515 21.50793,-0.74124 16.60691,-3.35445 -11.02327,-1.68521 -31.25128,-16.33494 -9.31139,-8.79937 21.8279,7.5248 0.79995,-5.9197 -4.95434,-11.08735 -12.53251,-2.43716 -13.17246,-12.88446 -13.17246,-12.88446 0,0 6.9222,-3.94103 1.46123,-13.79106 13.54045,-2.51191 5.36498,-7.27421 6.88488,-11.81262 1.5199,-4.5544 8.39411,-10.35658 10.7513,-10.82598 0.44796,-0.61326 4.13305,0.1227 0.71461,1.50928 -2.95446,0.0319 -0.8586,8.35145 2.67717,8.77807 11.95654,1.45593 8.45811,-14.15375 1.43457,-17.29489 -7.03954,-3.1677 -0.71996,-11.75386 4.22372,-5.97294 4.94368,5.77033 15.96163,-0.70928 11.82855,-8.02074 6.57024,4.55429 10.11135,-10.18064 7.31687,-18.6388 8.78876,-7.62079 8.50611,-22.81451 1.70655,-26.21163 -3.34377,-1.66921 -4.95969,-2.75181 -5.77029,-4.82634 4.03706,-1.90921 9.39139,-3.31712 11.49258,-1.43457 3.41845,3.08779 12.93248,-5.42898 12.32986,-15.38566 4.00507,2.19718 10.38332,-18.10548 4.965,-25.20902 12.40453,-17.34287 9.06075,-18.9161 4.91169,-16.00962 -6.23959,8.6501 -26.73425,19.00142 -10.8473,3.66908 15.42299,-14.88435 -4.10106,-3.59975 -10.63396,-1.1839 -7.68483,9.62602 -15.83897,5.00233 -15.83897,5.00233 0,0 0.34664,-7.88749 -9.57804,-8.04748 4.58637,-12.65516 -2.80515,-8.0848 -5.39164,-11.54058 -2.59183,-3.45043 -3.52511,-11.88722 -2.7305,-14.04707 z"
     id="path73"
     style="overflow:visible;fill:url(#XMLID_65_)" /><ellipse
     cx="443.50739"
     cy="637.59351"
     rx="164.38925"
     ry="106.50504"
     id="ellipse132"
     style="overflow:visible;opacity:0.5;fill:url(#XMLID_71_)" /></svg>